<svg width="600" height="128" viewBox="0 0 600 128" fill="none" xmlns="http://www.w3.org/2000/svg">
<g clip-path="url(#clip0_0_566)">
<circle cx="289" cy="64" r="64" stroke="white" stroke-width="6"/>
<path fill-rule="evenodd" clip-rule="evenodd" d="M279.145 29.0575L315.028 59.6575C316.243 60.6925 317 62.245 317 63.9775C317 65.71 316.22 67.2625 315.028 68.2975L279.214 98.875L278.618 99.3925C278.044 99.775 277.356 100 276.623 100C274.628 100 273 98.335 273 96.265V31.735C273 29.665 274.628 28 276.623 28C277.379 28 278.09 28.2475 278.663 28.6525L279.145 29.0575Z" fill="white"/>
<path d="M47.7108 48.4L39.8868 72.208L32.2068 48.4H25.0068L17.0868 72.016L9.50281 48.4H1.43881L12.4788 82H20.7828L28.4148 59.248L35.8068 82H44.1588L55.1508 48.4H47.7108ZM83.4708 82H91.6308L76.6068 48.4H68.9268L53.9508 82H61.9188L64.8948 74.8H80.4948L83.4708 82ZM67.3908 68.896L72.7188 56.032L78.0468 68.896H67.3908ZM100.389 82H108.165V54.736H118.917V48.4H89.6373V54.736H100.389V82ZM138.712 82.576C144.568 82.576 149.416 80.464 152.584 76.576L147.592 71.968C145.336 74.608 142.504 75.952 139.144 75.952C132.856 75.952 128.392 71.536 128.392 65.2C128.392 58.864 132.856 54.448 139.144 54.448C142.504 54.448 145.336 55.792 147.592 58.384L152.584 53.776C149.416 49.936 144.568 47.824 138.76 47.824C128.296 47.824 120.52 55.072 120.52 65.2C120.52 75.328 128.296 82.576 138.712 82.576ZM180.876 48.4V61.648H165.612V48.4H157.836V82H165.612V68.224H180.876V82H188.652V48.4H180.876Z" fill="white"/>
<path d="M396.475 82H404.251V54.736H415.003V48.4H385.723V54.736H396.475V82ZM448.947 82L441.411 71.2C445.779 69.328 448.323 65.632 448.323 60.592C448.323 53.056 442.707 48.4 433.731 48.4H419.187V82H426.963V72.64H433.731H434.115L440.595 82H448.947ZM440.451 60.592C440.451 64.24 438.051 66.448 433.299 66.448H426.963V54.736H433.299C438.051 54.736 440.451 56.896 440.451 60.592ZM479.588 82H487.748L472.724 48.4H465.044L450.068 82H458.036L461.012 74.8H476.612L479.588 82ZM463.508 68.896L468.836 56.032L474.164 68.896H463.508ZM491.234 82H499.01V48.4H491.234V82ZM506.984 82H531.608V75.664H514.76V48.4H506.984V82ZM543.681 75.76V67.984H559.281V61.936H543.681V54.64H561.345V48.4H535.953V82H561.969V75.76H543.681ZM597.916 82L590.38 71.2C594.748 69.328 597.292 65.632 597.292 60.592C597.292 53.056 591.676 48.4 582.7 48.4H568.156V82H575.932V72.64H582.7H583.084L589.564 82H597.916ZM589.42 60.592C589.42 64.24 587.02 66.448 582.268 66.448H575.932V54.736H582.268C587.02 54.736 589.42 56.896 589.42 60.592Z" fill="white"/>
</g>
<defs>
<clipPath id="clip0_0_566">
<rect width="600" height="128" fill="white"/>
</clipPath>
</defs>
</svg>
